<svg xmlns="http://www.w3.org/2000/svg" xmlns:xlink="http://www.w3.org/1999/xlink" version="1.1" id="Слой_1" x="0px" y="0px" viewBox="0 0 154 133" style="enable-background:new 0 0 154 133;" xml:space="preserve">
<style type="text/css">
	.st0{fill:#FFFFFF;}
</style>
<g>
	<path class="st0" d="M25.3,62c-0.3-0.1-2.1-0.8-2.1-0.8c-8.4-3.2-5,2.6,1.7,3.6C39.3,67,31.5,63.7,25.3,62"/>
	<path class="st0" d="M10.6,50.8c-1.6-2.6-3.4-2.9-1.3,1.1l-0.2,0.9c-2.6,0.6-2.7,1,0.2,1.8l0.2,1.2c-1.9,2.9,0.6,3.7,1.3-0.6   C10.5,53.5,10.5,52.1,10.6,50.8"/>
	<path class="st0" d="M145.9,11.1C155.7,15.2,143.8,4.8,145.9,11.1"/>
	<path class="st0" d="M154,12.8c0-2.9-2.6-6.7-5-8.5C147.7,1.5,146.4,0,145,0h0c-1.2,0-2.5,1.2-3.8,3.7C134-3,124.8,5,117.6,10.2   c-4.8,3.4-10.6,5.9-15.7,8.9c-4.4-0.4-9.3-0.7-14.7-1.1c-40.5,1.8-52.3,3.5-50,18.8c-11.1,1.6-19-2.5-27.3,6   c-5.4-1.7-6.1,2.4-4.7,7.2c-5.3,3.5-7.9,5-0.9,6.7c0.8,3.7,1,5.9,5.4,5.6c11.3,10.7,24.3,8.3,38.4,6c1,2.5,2.1,5.2,3.2,8   c-31.4,8.1-31,5.3-19.1,30.5c6.3,13.4,3.5,13.7,24.5,6.1c0,9.7-1.6,11.3,10.5,11.3c13.8,10,26.1,13.5,39-0.1   c12.8,0.8,10.4-1.4,10.4-12c26.5,6.1,23.5,7.4,27.8-5.4c9.7-28.2,12.2-23.5-20.3-30.3c5.6-18.2,10.1-30.3,10.9-38.6   c9-6.4,15.7-9.7,15.2-21.2C153,16.2,154,14.7,154,12.8 M59.7,23.5c14.8-1.7,25.5-2.4,37.4-1.6L92,24.2c-0.8,0-1.6-0.1-2.4-0.1   c-8.7-0.2-16.7-0.1-28.7,1.5c-12.4,2.6-16.1,3.8-15.8,10.1l-3.2,0.4C41.2,27.6,45.5,26.5,59.7,23.5 M86.6,29.3l-2.6,1   c-0.6-1.8-1.6-3.2-2.9-5.1C84.2,26.9,84.6,26.9,86.6,29.3 M77.3,32.4l-4,1.2c-0.4-2.8-0.5-4.8-0.3-7.7   C74.4,28.1,75.8,30.2,77.3,32.4 M61,36c-1.2-3.5-4.4-5.1-0.3-8.1L60.4,29C60.3,31.4,62.1,30.8,61,36 M49.5,32.9   c2,1.3,3.3,2.8,3.4,5.3l-3,0.3C50.6,36.2,50.4,35.3,49.5,32.9 M129.6,46.2l-9,31.2l20.6,4.3c5.6,1.6,7.4,2.3,6.1,8.4   c-11.3,32.5-2.4,25.2-34.2,19.3c0.1,8.7,3.1,12.1-4.5,12.2l-5.4,0.1c-10.4,13.4-22.4,8.3-34.9-0.4l-3.7-0.1   c-6.3-0.1-3.4-5.9-3.2-12.8c-21.8,7.1-21.3,10.7-26.5-2.1c-11.6-28.1-6.7-19.9,20.1-29.4l-2.9-7.9l3.6-0.3l3.7,9.4   c-26.5,9.5-34.3,1.9-22.4,27c4.4,11.4,5.8,6.2,27.1-0.1c-0.5,10.3-4.9,16.6,5.4,13.9c12,8.3,23.1,13.4,33.1,0.5   c13.3,2,8.9-2.5,8.2-12.6c31.7,7.2,25.8,10.6,34.9-18.6c2.9-6.2-24.9-8.3-28.5-9.7l9.2-31.3c0.4-1.5,0.8-2.8,1-4.1l3.3-2.3   C130.6,42.4,130.2,44.2,129.6,46.2 M67.9,65.9c-0.1,5.9,3.7,2.7,3.4,8.6c4.5,1.1-1.4-3.4,2.2-8.9l0,1.1c0.1,5.1,4.3,5.7,2.9-2.8   c4.9,4.1,0.9,5.4,2.2,10.1c2.4-1.1,2-5.1,1.5-7.4c4.5,2.6,5,10.1,8.9,6.1c1,1.8,1,2.3,1.6,4.3c-9.4-0.9-19.9-0.1-28.2,1.5   c2.1-4.2-3.5-11.9-2.6-11.8c6.1,1,6.3,13.1,8,9.3C68.8,71.3,64.8,74.1,67.9,65.9 M90.7,50.9l4.1-1.7l5.9,13.5   c-4.9,4.3-4.3,6.4-1.9,12l1.8,2.7l-5-0.3L94,73.2l-1.3-2.5c-1.7-2.4-2-2.6-5-2.6h-2.1l-4.9-14.2l3.8-1   C89.8,66.9,97.8,63.4,90.7,50.9 M103.9,64.7l-0.6-1.2c3.4,3.3,1.8,4.1,2.2,9c2,0.7,2.7-11.2,2.2-14c3.4,6.5,0.8,3.9,1.4,9.3   c2.6,0.6,1.7-2.1,1.7-4.5l1.4,3c0.8,1.6-1.4,2.3-1.6,4.3c-0.6,8.7,1.3,4.8,3.1-1.6l0.4-1.6l0.5-1.9c0.7,6.1-2.4,11.9,0.1,12.4   l-0.1,0.6c-3.8-1-6.5-1-10.6-1C99,69.7,106.6,73.5,103.9,64.7 M115.3,82.5c0.4-0.5,0.8-0.7,1.3-0.8c0.5-0.1,1-0.1,1.5,0.1   c0,0,0.3,0.1,0.4,0.2c0.8,0.5,0.8,1.5,0.8,1.6c0,0.2,0.1,0.8,0,1.2c-0.3,1.6-2,2.3-3.1,1.7c-0.2-0.1-0.5-0.4-0.7-0.7   c-0.1-0.2-0.4-0.6-0.4-0.6s-0.1-0.3-0.2-0.4c-0.1-0.2-0.1-0.8-0.1-1C114.8,83.7,114.9,83,115.3,82.5 M118.9,56   c0.3-1.6,0.9,2.2-1.1,4.3c0,0-0.6,0.7-0.7,1.8c-0.1,1.1-1.3,2.6-1.3,2.6C113.2,58.3,117.9,60.7,118.9,56 M120.5,98.8   c0.1,0.6,0.5,1.1,1.1,1.4c0.5,0.3,1.1,0.3,1.6,0.1c0.4-0.2,0.8-0.5,1.2-0.9l0.9-1c0.3-0.3,0.6-0.4,0.8-0.3c0.2,0.1,0.4,0.3,0.5,0.5   c0.1,0.2,0.2,0.5,0.2,0.8c-0.1,0.3-0.3,1.1-0.3,1.1c-0.5,1.6-1.2,2.7-2.2,3.3c-0.9,0.5-2,0.5-3.2-0.1c-0.9-0.4-1.6-1-2.1-1.6   c-0.5-0.7-0.9-1.4-1.1-2.2c-0.2-0.8-0.3-1.7-0.3-2.7c0.1-1.9,0.4-3.9,1-6.1l1.2-4.3l0.4-1.1c0.5-1.3,1.1-1.8,1.8-1.7   c0.7,0.1,1.3,0.8,1.4,1c0.2,0.3,0.3,0.6,0.4,1c0.2,0.7,0.3,1.5,0,2.4c-0.5,1.7-2.4,6.8-2.4,6.8s-0.5,1.5-0.6,1.7   C120.4,97.7,120.4,98.2,120.5,98.8 M116.7,89.4c0.4,0.1,0.7,0.3,1,0.5c0.4,0.5,0.6,1,0.4,1.6l-0.2,0.4l-0.3,0.4l-0.2,0.2l-0.1,0.1   l-0.2,0.2l-0.2,0.2c-0.6,0.6-1,1.1-1.2,1.5l-0.2,0.6l-0.1,0.6l-0.1,1.1l-0.2,1.1c0,0-0.1,0.6-0.2,0.7c-0.1,0.7-0.7,1.6-1,2.1   c-0.5,0.6-1.2,0.8-2,0.6c-0.5-0.1-0.8-0.3-0.9-0.7c-0.1-0.4-0.2-0.8,0-1.1c0.1-0.1,0.1-0.3,0.3-0.5c0.3-0.5,1-1.5,1.3-2   c0.4-0.7,0.9-2.1,1-2.8c0-0.2,0-0.3,0-0.4c0-0.4,0-1.2,0-1.5c0-0.2-0.2-0.6-0.2-0.6s-0.2-0.3-0.1-0.6c0,0,0-0.1,0-0.2   c0.2-0.7,0.7-1.2,1.4-1.5C115.3,89.3,116,89.2,116.7,89.4 M102.2,83.2c0.2,0.3,0.3,0.8,0.4,1.1c0.1,0.7,0,1.9-0.3,2.5   c-0.2,0.6-1.6,1.2-2.4-0.1c-0.2-0.4-0.5-1.1-0.9-1.5c-0.3-0.3-0.9-0.7-1.8-0.7c-0.9,0-1.7,0.3-2.4,1l-0.2,0.2l-0.3,0.4l-0.4,0.5   c-0.3,0.4-0.6,1.1-0.9,2.1c-0.1,0.4-0.2,0.8-0.3,1.1c-0.1,0.4-0.1,0.7-0.1,1.1c0,1.3,0.2,2.3,0.8,2.9c0.3,0.3,0.7,0.6,1.1,0.8   c1.5,0.5,3.3,0.1,3.8,0c0.4-0.1,1.2-0.4,1.7-1.1c0.2-0.2,0.3-0.6,0.3-0.8c0-0.2-0.1-0.5-0.3-0.6c-0.8-0.3-1.4-0.1-2.2,0.6   c-0.2,0.2-1.2,0.5-2-0.2c-0.2-0.2-0.7-1.3,0-2.2c0.3-0.4,0.9-0.8,1.5-1.1c0.9-0.4,2.6-0.1,3.1,0c0.9,0.2,1.5,0.7,1.9,1.2   c0.1,0.1,0.1,0.2,0.2,0.2c0,0,0.2-1.7,0.3-2.2c0-0.7,0.6-2.5,0.9-3c0.6-1,1.3-1.6,2.2-1.7c0,0,1.2-0.3,2.8-0.2   c2.5,0.2,3.9,1.2,4.3,1.4c0.4,0.3,0.8,1.1,0.9,1.7c0.1,0.7,0,1.5-0.3,2.3c-0.4,0.9-1.3,1.7-2.3,1.9c-0.3,0.1-1.6,0-1.7,0   c-0.2,0-0.7,0-1,0.1c-0.5,0.1-0.7,0.3-0.7,0.6c0,0.3,0,0.6,0.2,0.9c0.2,0.3,0.4,0.6,0.7,0.9l1.5,1.6c0.2,0.2,0.4,0.5,0.6,0.7   c0.4,0.6,0.5,1.2,0.5,1.7c0,0.3-0.1,0.5-0.3,0.7c-0.2,0.2-0.4,0.2-0.7,0.2c-0.3-0.1-0.7-0.2-1-0.4c-0.4-0.2-0.7-0.5-1.1-0.8   c-0.8-0.7-1.4-1.4-1.6-2c-0.1-0.2-0.2-0.4-0.2-0.6l-0.1-0.8c-0.1-0.7-0.3-1.1-0.8-1.2c-0.2,0-0.4,0-0.5,0.1   c-0.1,0.1-0.1,0.1-0.2,0.2c0,0.1-0.1,0.2-0.1,0.3c0,0,0,0.3-0.1,0.5c-0.1,0.5,0,0.9,0.1,1.2c0,0.2,0.1,0.6,0.1,0.8   c0,0.6-0.2,1.6-0.2,1.6c-0.3,0.9-0.8,1.3-1.6,1.1c-0.5-0.1-0.8-0.4-0.8-1.1l0-1.2c-0.6,0.7-1.3,1.3-2.3,1.8   c-0.7,0.4-1.3,0.6-2.1,0.7c-0.7,0.2-1.4,0.2-2.2,0.2c-0.9-0.1-5.5-0.8-6.3-4.1c-0.2-0.7-0.5-2.3-0.4-4.2c0.2-2.9,1-5.3,2.8-7.1   c1.8-1.8,3.9-2.7,6.5-2.6c1.3,0,2.4,0.4,3.3,1.1C101.5,82.2,101.9,82.6,102.2,83.2 M105.1,107.9l0-0.1l0,0l0,0l0,0l0,0l0,0l0,0.1   l-0.3,0.3l-0.4,0.5l-0.4,0.5l-0.6,0.9l-0.2,0.3l-0.2,0.3l-0.2,0.2c-0.1,0.2-0.3,0.3-0.5,0.4c-0.2,0.1-0.4,0.1-0.6,0.1   c-0.1,0-0.3-0.1-0.5-0.2c-0.2-0.1-0.3-0.2-0.5-0.4c-0.1-0.1-0.3-0.3-0.4-0.5c-0.1-0.2-0.2-0.4-0.1-0.5c0,0,0,0,0-0.1   c0-0.1,0-0.1,0-0.1l0.1-0.7v-0.2l0.1-0.2l0-0.2l0-0.1l0-0.2l0-0.2l0-0.3l0.4-1.8l0.1-0.2c0-0.1,0.1-0.1,0.1-0.2l0.1-0.1l0.1-0.1   c0.2-0.1,0.4-0.2,0.7-0.1c0.4,0.1,0.6,0.3,0.7,0.6c0.1,0.2,0.1,0.4,0,0.5c0,0,0,0.1,0,0.1c0,0.1,0,0.1,0,0.1l0,0.3l-0.1,0.3   l-0.1,0.2l0,0c0,0,0,0.1,0,0.1c0,0,0,0.1,0,0.1c0,0,0,0.1,0,0.1l-0.1,0.4l-0.1,0.4l0,0.2l0,0.3c0,0,0,0.1,0,0.1   c0,0.1,0,0.1,0.1,0.2c0,0.1,0.1,0.1,0.2,0.1c0.1,0,0.2,0,0.4-0.2l0.2-0.2l0.1-0.2l0.1-0.2l0.1-0.1l0.2-0.2l0.2-0.3l0.4-0.5l0.1-0.1   c0.3-0.4,0.5-0.6,0.8-0.8l0.5-0.3c0.1-0.1,0.2-0.1,0.2-0.1c0.1,0,0.2-0.1,0.3-0.2l0.1-0.1l0.1,0l0,0l0,0c0.1,0,0.2,0.1,0.3,0.3   c0.1,0.2,0.1,0.3,0.1,0.4l-0.8,4.1l-0.1,0.4l-0.1,0.2l-0.1,0.1c0,0,0,0.1-0.1,0.1c-0.3,0.5-0.6,0.6-0.9,0.6c-0.1,0-0.2-0.1-0.3-0.1   c-0.1-0.1-0.1-0.2-0.2-0.3l-0.1-0.1l0-0.2l0-0.2l0-0.1l0-0.1l0-0.1l0-0.1l0-0.1l0.3-0.5l0.2-0.4l0.1-0.2c0.2-0.5,0.4-0.9,0.4-1.2   l0-0.1L105.1,107.9z M98.3,108.1l0.1,0.2l0.3,0.3l0.1,0.1l0.1,0.1l0.1,0.1l0.4,0.3c0.3,0.2,0.4,0.5,0.4,0.8c0,0.2-0.1,0.3-0.2,0.5   c-0.1,0.1-0.3,0.2-0.5,0.2c-0.1,0-0.2,0-0.2-0.1c-0.1,0-0.1-0.1-0.2-0.1l-0.2-0.2l-0.2-0.2l-0.2-0.2l-0.1-0.2l-0.2-0.5   c-0.1-0.2-0.2-0.3-0.3-0.4c-0.1-0.1-0.2-0.2-0.3-0.2l-0.1,0c0,0,0,0,0,0.1l-0.1,1.6c0,0,0,0.1-0.1,0.1l-0.2,0.1l-0.2,0l-0.2,0l0,0   l-0.1-0.1c-0.2-0.1-0.3-0.2-0.3-0.3c0,0,0-0.1,0-0.1c0,0,0-0.1,0-0.1l0-0.2l0-0.3l0-0.4l0.3-3.8c0-0.2,0.1-0.4,0.4-0.5   c0,0,0.1-0.1,0.2-0.1c0,0,0.1,0,0.1-0.1c0.1,0,0.1,0,0.2,0c0.1,0,0.1,0,0.1,0c0.2,0,0.4,0.1,0.4,0.4l0,0.2v0.3l-0.1,0.4l-0.1,0.5   l0,0.4l0,0.1l0.1,0l0.1,0l0.2,0c0,0,0.1,0,0.1,0l0.1-0.1l0.1-0.1l0.3-0.4l0.3-0.4c0.1-0.1,0.2-0.3,0.3-0.4c0.1-0.1,0.3-0.2,0.4-0.3   c0.3-0.2,0.6-0.3,1-0.3c0.3,0,0.4,0.1,0.4,0.4c0,0.4-0.2,0.7-0.5,0.9l-0.2,0.2l-0.4,0.3l-0.6,0.5c-0.4,0.2-0.6,0.4-0.6,0.7   C98.2,107.8,98.2,108,98.3,108.1 M90.5,121.7l0,0.2l0,0.1v0.2c0,0.1,0,0.2-0.1,0.3c-0.1,0.4-0.4,0.6-0.7,0.6c-0.1,0-0.2,0-0.3-0.1   c-0.1-0.1-0.1-0.1-0.2-0.2l-0.1-0.2l0-0.1l0-0.3v-0.1c0-0.1,0-0.1,0-0.1l0-0.2c0-0.2,0.1-0.4,0.1-0.5c0-0.3-0.1-0.5-0.2-0.7   c-0.1-0.1-0.2-0.2-0.3-0.2l-0.1,0l-0.1,0c0,0-0.1,0-0.1,0c0,0-0.1,0-0.1,0l-0.4-0.1c-0.2,0-0.3-0.1-0.4-0.1   c-0.1-0.1-0.2-0.2-0.2-0.4l0-0.2l0-0.2l0-0.2l0-0.4l0-0.1v-0.1c0.1-0.2,0.2-0.3,0.3-0.4l0.2-0.2l0.2-0.1c0.1,0,0.2-0.1,0.2-0.1   c0.1,0,0.2-0.1,0.3-0.1c0.2-0.1,0.4-0.1,0.5-0.1l0.3-0.1l0.3,0l0.2,0H90h0.7c0.1,0,0.3,0,0.4,0c0.1,0,0.3,0,0.5,0   c0.2,0,0.4,0.1,0.6,0.2c0.3,0.2,0.6,0.4,0.7,0.8c0,0.1,0,0.1,0,0.2c0,0.1,0,0.2,0,0.2c0,0.1,0,0.3,0,0.5c0,0.1-0.1,0.2-0.2,0.3   l-0.1,0.1l-0.2,0.2l-0.2,0.2c-0.1,0.1-0.1,0.1-0.2,0.1l-0.2,0.1l-0.2,0l-0.4,0.1l-0.2,0c0,0-0.1,0-0.1,0c0,0,0,0-0.1,0   c-0.2,0.1-0.3,0.2-0.4,0.4l-0.1,0.2l0,0.3v0.1L90.5,121.7z M80,118.1l0,0.2l0.1,0.3l0.1,0.1l0,0.1l0,0.1l0.2,0.4   c0.1,0.3,0.1,0.6,0,0.8c-0.1,0.2-0.2,0.3-0.3,0.3c-0.1,0.1-0.3,0-0.5,0c-0.1,0-0.1-0.1-0.2-0.1c-0.1-0.1-0.1-0.1-0.1-0.2l-0.1-0.2   l-0.1-0.2l0-0.2l0-0.2l0-0.5c0-0.2,0-0.3-0.1-0.4c0-0.1-0.1-0.2-0.2-0.3l-0.1,0c0,0,0,0-0.1,0.1l-0.7,1.3c0,0-0.1,0.1-0.1,0.1   l-0.2,0l-0.2,0l-0.2-0.1l0,0l-0.1-0.1c-0.1-0.1-0.2-0.3-0.2-0.4c0,0,0-0.1,0-0.1c0,0,0-0.1,0-0.1l0.1-0.2l0.1-0.2l0.1-0.3l1.7-3   c0.1-0.1,0.3-0.2,0.5-0.3c0,0,0.1,0,0.2,0c0,0,0.1,0,0.1,0c0.1,0,0.1,0,0.2,0c0,0,0.1,0,0.1,0c0.2,0.1,0.2,0.3,0.2,0.5l-0.1,0.2   l-0.1,0.2l-0.2,0.3l-0.3,0.4l-0.2,0.3l0,0l0,0l0,0l0.2,0.1c0,0,0.1,0,0.1,0l0.1,0l0.1,0l0.4-0.2l0.4-0.2c0.1-0.1,0.3-0.1,0.4-0.2   c0.1-0.1,0.3-0.1,0.4-0.1c0.3,0,0.6,0,0.9,0.1c0.2,0.1,0.3,0.3,0.2,0.4c-0.2,0.3-0.4,0.5-0.8,0.6l-0.3,0.1l-0.4,0.1l-0.7,0.2   c-0.4,0-0.6,0.1-0.7,0.4C80,117.9,80,118,80,118.1 M76.7,109.4c-0.2,0-0.3,0-0.5,0c-0.3,0-0.5-0.1-0.7-0.3   c-0.2-0.1-0.4-0.3-0.5-0.6c-0.1-0.2-0.2-0.6-0.3-1l0-0.1l0-0.2v-0.1V107v-0.2v-0.2v-0.2c0-0.1,0-0.3,0-0.4l0.1-0.4c0,0,0-0.1,0-0.2   c0-0.1,0-0.1,0.1-0.2c0.1-0.3,0.2-0.6,0.3-0.8c0.1-0.2,0.3-0.4,0.4-0.6c0.4-0.4,0.9-0.6,1.4-0.6c0.1,0,0.3,0,0.4,0   c0.1,0,0.1,0,0.2,0c0.1,0,0.1,0,0.2,0.1c0.2,0.1,0.4,0.2,0.6,0.4c0.1,0.1,0.2,0.2,0.3,0.3l0.2,0.3c0,0.1,0.1,0.1,0.1,0.2   c0,0.1,0.1,0.1,0.1,0.2c0.1,0.3,0.2,0.6,0.3,0.9c0,0.1,0,0.2,0,0.3v0.3v0.3l0,0.3l-0.1,0.3c0,0.1,0,0.2-0.1,0.3l-0.1,0.3   c0,0.1,0,0.1-0.1,0.2c0,0,0,0.1-0.1,0.2c-0.1,0.2-0.2,0.4-0.3,0.6c-0.3,0.4-0.6,0.6-1.1,0.7h-0.6C77.1,109.4,76.9,109.4,76.7,109.4    M83.7,105c-0.1-0.2-0.2-0.3-0.5-0.4l-0.1,0H83c-0.1,0-0.2,0-0.3,0c-0.1,0-0.2,0-0.3,0.1c-0.3,0.2-0.5,0.4-0.7,0.8   c0,0.1-0.1,0.2-0.1,0.3c0,0.1,0,0.2,0,0.3c0,0.4,0.1,0.8,0.3,1.1c0.2,0.3,0.5,0.4,0.8,0.4c0,0,0.1,0,0.1,0l0.1,0l0.2-0.1l0.2-0.1   l0.1-0.1l0.1-0.1l0.1-0.1l0.3-0.1l0.2-0.1l0.2-0.1h0.1l0.1,0h0.1c0.4,0,0.5,0.2,0.5,0.5c0,0.3-0.1,0.5-0.3,0.7   c-0.2,0.2-0.5,0.4-0.8,0.6l-0.2,0.1l-0.1,0.1l-0.1,0.1l-0.2,0c-0.2,0.1-0.4,0.1-0.5,0.1c-0.2,0-0.3,0.1-0.5,0.1   c-0.3,0-0.6-0.1-0.9-0.2c-0.2-0.1-0.5-0.3-0.7-0.5c-0.3-0.3-0.5-0.7-0.6-1.2c0-0.2,0-0.3,0-0.5c0-1.4,0.2-2.3,0.7-2.9   c0.2-0.3,0.5-0.5,0.9-0.6c0.4-0.1,0.8-0.2,1.1-0.2h0.1c0,0,0.1,0,0.1,0h0.1h0.5c0.5,0.1,0.8,0.5,1,1.3c0,0.2,0,0.4,0,0.6   c0,0.4-0.1,0.7-0.2,0.9c-0.2,0.3-0.4,0.5-0.7,0.5c-0.1,0-0.2-0.1-0.3-0.2c0-0.1-0.1-0.1-0.1-0.2c0-0.1,0-0.1,0-0.2c0,0,0-0.1,0-0.2   l0.1-0.2l0.1-0.2c0,0,0,0,0-0.1c0,0,0-0.1,0-0.1C83.8,105.1,83.7,105.1,83.7,105 M82,120.1l0-0.1l0-0.2l0-0.1l0-0.1l0-0.1l0-0.2   l0-0.2c0-0.1,0.1-0.2,0.1-0.3l0.2-0.4c0,0,0-0.1,0.1-0.1c0,0,0.1-0.1,0.1-0.2c0.2-0.3,0.3-0.5,0.5-0.7c0.2-0.2,0.3-0.3,0.5-0.5   c0.4-0.3,0.9-0.4,1.4-0.3c0.1,0,0.2,0.1,0.3,0.1c0.1,0,0.1,0,0.1,0.1c0.1,0,0.1,0.1,0.2,0.1c0.1,0.1,0.3,0.2,0.5,0.5   c0.1,0.1,0.1,0.2,0.2,0.3l0.1,0.3c0,0.1,0.1,0.1,0.1,0.2c0,0.1,0,0.1,0.1,0.2c0.1,0.3,0.1,0.5,0,0.9c0,0.1,0,0.2,0,0.2l-0.1,0.3   l-0.1,0.3l-0.1,0.3l-0.1,0.3c0,0.1,0,0.1-0.1,0.3l-0.2,0.3c0,0.1-0.1,0.1-0.1,0.1c0,0-0.1,0.1-0.1,0.1c-0.1,0.2-0.3,0.3-0.4,0.5   c-0.3,0.3-0.7,0.4-1.1,0.4l-0.5-0.1c-0.2,0-0.3-0.1-0.5-0.1c-0.2,0-0.3-0.1-0.4-0.1c-0.2-0.1-0.4-0.2-0.6-0.4   c-0.1-0.2-0.2-0.3-0.3-0.6C82,120.8,82,120.5,82,120.1 M86.8,106.6l0,0.2c0,0,0,0.1,0,0.1c0,0,0,0.1,0.1,0.1c0,0.1,0.1,0.1,0.2,0.1   c0.1,0,0.2-0.1,0.3-0.2l0.1-0.2l0.1-0.2l0.1-0.2l0.1-0.1l0.1-0.2l0.1-0.3l0.2-0.5l0.1-0.1c0.2-0.4,0.4-0.6,0.5-0.8l0.3-0.3   c0.1-0.1,0.1-0.1,0.2-0.2c0.1-0.1,0.1-0.1,0.2-0.2l0.1-0.1l0.1,0h0l0,0c0.1,0,0.2,0.1,0.3,0.2c0.1,0.1,0.1,0.2,0.1,0.3l0,3.6   l-0.1,0.3l0,0.2l0,0.1c0,0.1,0,0.1,0,0.1c-0.2,0.4-0.4,0.6-0.7,0.6c-0.1,0-0.2,0-0.3-0.1c-0.1,0-0.1-0.1-0.2-0.2l-0.1-0.1l-0.1-0.1   l-0.1-0.2l0-0.1v-0.1l0-0.1V108l0-0.1l0.2-0.5l0.1-0.3l0.1-0.2c0.1-0.4,0.2-0.8,0.2-1.1v-0.1l0-0.1l0-0.1l0,0h0l0,0l0,0l0,0l0,0.1   l-0.2,0.3l-0.2,0.5l-0.2,0.5l-0.4,0.9l-0.1,0.3l-0.1,0.3l-0.1,0.2c-0.1,0.1-0.2,0.3-0.4,0.4c-0.1,0.1-0.3,0.1-0.5,0.1   c-0.1,0-0.3,0-0.4-0.1c-0.1,0-0.3-0.1-0.5-0.2c-0.1-0.1-0.3-0.2-0.4-0.4c-0.1-0.2-0.2-0.3-0.2-0.4c0,0,0,0,0-0.1c0,0,0-0.1,0-0.1   v-0.6l0-0.2l0-0.1l0-0.2v-0.1v-0.2v-0.2l0-0.3l0-1.6l0-0.2c0,0,0-0.1,0-0.1l0.1-0.1l0.1-0.1c0.1-0.2,0.3-0.2,0.5-0.2   c0.3,0,0.6,0.1,0.7,0.4c0.1,0.2,0.1,0.3,0.1,0.4c0,0,0,0.1,0,0.1c0,0.1,0,0.1,0,0.1l0,0.2v0.2l0,0.1l0,0.1c0,0,0,0.1,0,0.1   c0,0,0,0.1,0,0.1c0,0,0,0.1,0,0.1l0,0.4l0,0.4L86.8,106.6z M86.2,114.4c0-0.3,0.2-0.7,0.5-1l0.2-0.3L87,113l0-0.1l0-0.1v-0.1v-0.1   l0-0.1c0,0,0,0-0.1-0.1l-0.1-0.4l0-0.2v-0.2c0-0.5,0.3-0.8,0.8-1c0.2-0.1,0.3-0.1,0.5-0.1c0.2,0,0.4,0.1,0.5,0.2   c0,0,0.1,0.1,0.1,0.1l0.1,0.1c0,0,0,0.1,0,0.1v0.2v0.1l0,0.2l0,0.2l0,0.1c0,0,0,0.1,0,0.1l-0.1,0.1l-0.1,0.1l0,0.1l0,0l0,0   c0,0,0,0.1-0.1,0.1l-0.1,0l-0.1,0c-0.1,0-0.2,0.1-0.2,0.2v0.1l0,0.2l0,0.1l0,0.1c0.1,0.2,0.2,0.3,0.4,0.3h0h0l0.5-0.5   c0,0,0.1,0,0.1-0.1h0.1c0.1,0,0.1,0,0.1,0l0.1,0l0.1,0l0.1,0.1c0,0,0,0,0,0.1c0,0,0,0,0,0.1l0,0.1v0l-0.3,0.4v0v0.1v0.1   c0,0,0,0,0,0.1l0.1,0.2c0,0,0,0.1,0,0.1c0,0.2-0.1,0.4-0.4,0.4c-0.1,0-0.1,0-0.1,0l-0.2-0.1c0,0-0.1,0-0.1,0h0h0l-0.6,0.5l-0.1,0   l-0.1,0h-0.3l-0.3,0H87l-0.1,0C86.5,115.2,86.2,114.9,86.2,114.4 M93.9,106c-0.1-0.2-0.2-0.3-0.5-0.3l-0.1,0h-0.1   c-0.1,0-0.2,0-0.3,0c-0.1,0-0.2,0-0.3,0.1c-0.3,0.1-0.5,0.3-0.7,0.7c0,0.1,0,0.2-0.1,0.3c0,0.1,0,0.2,0,0.3c0,0.4,0.1,0.6,0.3,0.9   c0.2,0.2,0.5,0.3,0.8,0.3c0,0,0.1,0,0.1,0l0.1,0l0.2-0.1l0.2-0.1l0.1-0.1l0.1,0l0.1-0.1l0.3-0.1l0.2-0.1l0.1,0h0.1l0.1,0h0.1   c0.4,0,0.5,0.2,0.5,0.4c0,0.2-0.1,0.4-0.3,0.6c-0.2,0.2-0.5,0.3-0.8,0.5l-0.2,0.1l-0.1,0.1l-0.1,0l-0.2,0c-0.2,0-0.4,0.1-0.5,0.1   c-0.2,0-0.3,0-0.5,0c-0.3,0-0.6,0-0.9-0.1c-0.2-0.1-0.5-0.2-0.7-0.4c-0.3-0.3-0.5-0.6-0.6-1c0-0.1,0-0.3,0-0.5   c0-1.1,0.2-1.9,0.7-2.4c0.2-0.2,0.5-0.4,0.9-0.5c0.4-0.1,0.8-0.2,1.1-0.2h0.1c0,0,0.1,0,0.1,0h0.1H94c0.5,0.1,0.8,0.4,1,1.1   c0,0.2,0.1,0.3,0.1,0.5c0,0.3-0.1,0.5-0.2,0.8c-0.2,0.3-0.4,0.4-0.7,0.4c-0.1,0-0.2,0-0.3-0.1c0,0-0.1-0.1-0.1-0.2   c0-0.1,0-0.1,0-0.2c0,0,0-0.1,0-0.1l0.1-0.1l0.1-0.1c0,0,0,0,0,0c0,0,0-0.1,0-0.1C93.9,106.1,93.9,106.1,93.9,106 M92.9,117.1   l-0.1-0.2l0-0.1c0-0.1,0-0.1,0-0.1c0-0.3,0.1-0.6,0.4-0.8c0.1-0.1,0.2-0.2,0.3-0.3c0.1-0.1,0.3-0.2,0.4-0.3l1.2-0.6l0.3-0.1   l0.4-0.1c0.1,0,0.3,0,0.4,0.1c0.1,0,0.1,0.1,0.1,0.1c0,0,0.1,0.1,0.1,0.1l0.1,0.1l0.1,0.2c0.1,0.2,0,0.3,0,0.5   c0,0.1-0.1,0.3-0.2,0.4c-0.1,0.1-0.1,0.1-0.2,0.1l-1.6,0.7c-0.1,0.1-0.2,0.2-0.3,0.3l0,0.1c0,0,0,0,0,0.1l0,0.1l0.1,0.1   c0,0.1,0.1,0.1,0.1,0.2c0.1,0,0.1,0.1,0.2,0.1h0.1c0,0,0,0,0.1,0l0.2-0.1l0.3-0.1c0.3-0.1,0.5-0.1,0.7,0l0.1,0.1l0.1,0.1l0,0   c0.1,0.2,0,0.3-0.1,0.5l-0.1,0.1l-0.1,0.1c0,0-0.1,0-0.1,0c0,0-0.1,0-0.1,0.1c0,0-0.1,0.1-0.1,0.1c-0.2,0.1-0.2,0.3-0.2,0.5   l0.1,0.1l0.1,0.1c0.1,0.1,0.2,0.1,0.3,0.1l1.7-0.8c0.1,0,0.2-0.1,0.4,0c0.2,0,0.3,0.1,0.4,0.2c0.2,0.3,0.1,0.6-0.2,1   c-0.1,0.1-0.3,0.2-0.4,0.3l-0.3,0.1l-0.3,0.2l-0.2,0.1l-0.3,0.1l-0.3,0.1l-0.2,0.1l-0.3,0c-0.1,0-0.2,0-0.2,0   c-0.4,0-0.7-0.1-0.9-0.3c-0.1-0.1-0.3-0.2-0.4-0.3l0-0.1l-0.1-0.2l-0.1-0.3l-0.1-0.2l-0.1-0.2l-0.1-0.3c0-0.1,0-0.1,0-0.1   c0,0,0,0,0-0.1l-0.1-0.2l0-0.1l-0.1-0.1l-0.1-0.2l-0.1-0.2L92.9,117.1z M61.1,90.1l0.1,0.1l0.7,1.2l0.6,1.2   c0.4,0.8,0.8,1.7,1.1,2.6c0,0.1,0.1,0.2,0.1,0.3c0,0-0.5-2.8-0.8-3.7c-0.2-0.7-0.9-4.5-0.9-5.4c0-0.7-0.2-1.9,0.4-2.9   c0.6-1,2.5-2.2,4.3-2.8c0.7-0.2,1.3-0.4,1.6-0.4c0,0,2.7-0.6,5.1,0.2c1.1,0.6,1.8,1.4,2.1,2.4c0.1-0.2,0.2-0.3,0.2-0.5   c0.2-0.3,0.3-0.5,0.4-0.7c0.9-1.3,1.8-2,2.8-2c0.8,0,1.7,0.5,2.6,1.5c0.1,0.2,0.3,0.3,0.4,0.5c0.1,0.2,0.2,0.3,0.3,0.5   c0.8,1.4,1.7,3.8,1.7,3.8l0,0.1l0.4,1.3l0.4,1.3c0.3,0.9,0.4,1.8,0.6,2.8c0.2,1.2,0.3,2.7,0.3,2.7s0,1.1,0,1.4c0,0.1,0,0.2-0.1,0.4   c0,0.1,0,0.2,0,0.2c-0.2,0.8-0.5,1.3-0.9,1.5c-0.1,0.1-0.3,0.1-0.4,0.1c-0.1,0-0.3,0.1-0.5,0.1c-0.8,0-1.9-0.8-2.3-2.1   c-0.2-0.9-1-3.7-2.9-3.6c-0.5,0-1,0.2-1.2,0.6c-0.2,0.4-0.4,1.7-0.4,1.7c-0.1,0.3-0.1,0.5-0.2,0.7c-0.1,0.2-0.2,0.4-0.2,0.6   c-0.6,1.4-1.4,2.1-2.5,2.1c-0.4,0-0.7-0.1-1-0.2c-0.9-0.6-1.4-1.6-1.5-3c0-0.7,0-1.2,0.2-1.8l0.5-1.7l0.8-2.5c0,0-0.1,0-0.1,0.1   c-0.3,0.2-0.8,0.5-1.5,0.8l-1.5,0.8c0,0-0.6,0.4-0.8,0.5c-0.9,0.5-1.3,1.2-1.5,1.6c-0.1,0.2-0.2,0.5-0.2,0.8c0,0.3,0,0.6,0,0.9   l0.2,1.1l0.4,1.7c0,0,0.1,0.5,0.1,0.6l0.1,0.9c0.2,1.4-0.4,2.2-1.6,2.4c-0.7,0.1-1.3,0-1.6-0.3c-0.5-0.3-0.8-0.8-1-1.4l0-0.1l0,0.3   c0,0.1,0,0.3,0,0.4c0,0.1,0,0.2,0,0.2c-0.1,0.8-0.3,1.4-0.8,1.7c-0.1,0.1-0.2,0.2-0.4,0.2c-0.1,0.1-0.3,0.1-0.5,0.1   c-0.9,0.2-1.6-0.1-2.3-1c0,0-0.9-1.4-1.3-1.9c-0.1-0.1-0.4-0.6-0.4-0.6c-0.3-0.4-0.7-0.8-1-1c-0.4-0.2-0.8-0.2-1.3-0.1   c-0.5,0.1-1,0.4-1.1,0.9c-0.1,0.4-0.2,2.3-0.2,2.5c-0.1,0.2-0.1,0.4-0.2,0.6c-0.4,1.5-1.2,2.3-2.4,2.6c-0.4,0.1-0.8,0.1-1.1,0   c-1.1-0.4-1.8-1.3-2.1-2.7c-0.1-0.7-0.2-1.3-0.1-1.8l0.3-1.8l0.5-2.7c-0.3,0.2-0.6,0.5-1.1,0.8l-1.4,1L47.1,97l-0.5,0.5   c-0.3,0.4-0.6,0.8-0.7,1.2c-0.1,0.2-0.1,0.5-0.1,0.7c0,0.2,0.1,0.5,0.2,0.8l0.4,1c0,0,0.3,0.7,0.4,0.9c0.2,0.4,0.7,1.7,0.7,1.7   c0.4,1.2,0,2-1.2,2.4c-0.7,0.2-1.3,0.2-1.7,0c-0.5-0.2-1-0.7-1.6-1.5c-1.6-2.5-4.2-8.5-4.8-11c-0.5-2,1.5-3.4,2.6-4.1   c0.4-0.2,0.9-0.5,1.6-0.9c0.7-0.3,1.2-0.6,1.6-0.7l1.4-0.4c1.2-0.4,2.5-0.5,3.8-0.4c1.1,0.2,1.8,0.7,2.3,1.4   c0.1-0.1,0.1-0.3,0.2-0.4c0.1-0.3,0.2-0.6,0.3-0.8c0.7-1.5,1.6-2.3,2.7-2.6c0.9-0.2,1.9,0.1,3,1c0.2,0.1,0.3,0.3,0.5,0.4   C59.2,87.1,61.1,90.1,61.1,90.1 M71.9,106.4c-0.1-0.2-0.4-0.3-0.7-0.4l-0.2,0l-0.2,0c-0.1,0-0.3,0-0.4,0.1c-0.1,0-0.2,0.1-0.3,0.1   c-0.4,0.2-0.7,0.6-0.8,1.1c0,0.1,0,0.2-0.1,0.4c0,0.1,0,0.2,0,0.4c0.1,0.5,0.2,0.9,0.5,1.2c0.3,0.3,0.7,0.4,1.2,0.3   c0.1,0,0.1,0,0.1,0l0.2,0l0.3-0.1l0.2-0.2l0.1-0.1l0.2-0.1l0.2-0.1l0.3-0.1l0.3-0.2l0.2-0.1h0.1l0.1,0l0.1,0   c0.5-0.1,0.7,0.1,0.8,0.5c0,0.3-0.1,0.6-0.3,0.9c-0.2,0.3-0.6,0.5-0.9,0.8l-0.2,0.1l-0.2,0.1l-0.2,0.1l-0.2,0.1   c-0.2,0.1-0.5,0.2-0.7,0.3c-0.2,0.1-0.4,0.1-0.6,0.1c-0.4,0.1-0.8,0-1.2,0c-0.4-0.1-0.7-0.2-1-0.4c-0.5-0.3-0.8-0.7-1-1.3   c-0.1-0.2-0.1-0.4-0.1-0.6c-0.2-1.5,0-2.7,0.5-3.4c0.3-0.4,0.6-0.6,1.2-0.9c0.5-0.2,1-0.4,1.5-0.4c0.1,0,0.1,0,0.2,0   c0.1,0,0.1,0,0.2,0l0.2,0l0.7-0.1c0.7,0,1.2,0.4,1.5,1.3c0.1,0.2,0.1,0.4,0.2,0.7c0.1,0.4,0,0.7-0.1,1.1c-0.2,0.4-0.4,0.6-0.8,0.6   c-0.2,0-0.3,0-0.4-0.1c-0.1-0.1-0.1-0.1-0.1-0.2c0-0.1-0.1-0.2-0.1-0.2c0,0,0-0.1,0-0.2l0.1-0.2l0.1-0.2c0,0,0,0,0-0.1   c0,0,0-0.1,0-0.1C72,106.5,72,106.4,71.9,106.4 M132,102.5c0.6,0.3,1.2,0.4,1.8,0.3c0.4-0.1,0.9-0.4,1.3-0.8l0.7-0.7   c0,0,0.7-0.8,1.2-0.4c0.2,0.1,0.4,0.3,0.6,0.5c0.2,0.3,0.3,0.5,0.2,0.8c-0.1,0.3-0.3,1-0.4,1.1c-0.6,1.6-1.4,2.6-2.6,3   c-1.1,0.4-2.3,0.2-3.7-0.6c-1-0.5-2.9-2.1-3.6-4.4c-0.3-0.9-0.4-1.8-0.3-2.8c0.1-1.9,0.5-3.9,1.3-6l0.2-0.7l0.6-1.8l0.9-2.3   c0,0,0.9-2.4,2.2-2c0.1,0,1,0.6,1.2,0.7c0.2,0.1,0.3,0.3,0.4,0.4c0.2,0.3,0.4,0.7,0.5,1c0.2,0.7,0.2,1.5,0,2.4l-0.3,0.9   c0,0-1.9,4.3-2.6,5.7c-0.4,0.9-0.9,2.5-1,2.8c0,0-0.1,0.4,0,0.6C130.8,101.8,131.3,102.1,132,102.5 M147.4,12.7H147   c0,0,0.3,1.1,0.4,1.5c2.2,10.8-3.5,12.5-13.4,20.1l-8.2,6.1l-7.6,4.5l-11.3,5.8l-8.1,3.9l-2.1-4.2c5.6-5.7-15.8,1.7-6.3,3l1.7,3.1   l-4.1,1.2l-2-3.4c4.7-7.8-14.7,1.8-5.7,2l0.8,3.1l-22.2,4.7c-14.1,2.1-38.7,7.9-47.5-5.6c-0.1-0.4-0.2-0.8-0.2-1.2   c-1.8,3.7-5.4,1.9-1.9-1.8l-0.5-0.9c-6-1.3-5.8-1.9-0.4-2.7c0.4-1.2-3.7-10.7,2.8-3.4c2.5-8.9,14.3-8.1,25.2-8.2   c29.1-1.1,56.3-10.2,80.4-25.6l9.5-6.4c6.4-4.1,9.8-6.3,16.6-0.6c1.8-3.2,1.4-8.5,4.5-1.1c2.5,0.3,3.7,0.6,2.5,3.2   C153.6,13.3,151.5,13,147.4,12.7"/>
	<path class="st0" d="M32.7,64.3c0.5,1.3,3.3,0.9,3.8-0.2C36.7,62,32.2,61.8,32.7,64.3"/>
	<path class="st0" d="M131,31.3L131,31.3C138.4,35.1,133.7,23.6,131,31.3"/>
	<path class="st0" d="M138,24.1c-7.8,3.9-2.5,6.2,2.3,2c0,0,0.5-0.5,0.5-0.5c5.6-6.1,8.5-12.5-1.5-2.4   C139.2,23.3,138.8,23.7,138,24.1"/>
	<path class="st0" d="M87.1,114.5L87.1,114.5c0.1,0.1,0.2,0.1,0.2,0.1c0.2,0,0.2-0.1,0.2-0.3l0-0.1l0-0.2c0-0.1-0.1-0.2-0.2-0.2   c-0.1,0-0.1,0-0.2,0.1c-0.1,0.1-0.1,0.2-0.2,0.3l0,0.1v0.1C87,114.4,87,114.5,87.1,114.5L87.1,114.5z"/>
	<path class="st0" d="M77.5,107.5l0.2-0.2c0.1-0.1,0.1-0.1,0.1-0.2V106c0-0.2-0.1-0.4-0.4-0.5c-0.1-0.1-0.2-0.1-0.3-0.1l-0.3-0.1   c-0.3,0-0.6,0.2-0.8,0.6c0,0.1-0.1,0.3-0.1,0.3v0.2l0,0.2l0.1,0.5c0.1,0.2,0.2,0.3,0.2,0.4c0.1,0.1,0.3,0.2,0.4,0.2l0.3,0l0.2,0   L77.5,107.5z"/>
	<path class="st0" d="M89,118.3c-0.2,0-0.4,0.1-0.5,0.1c-0.1,0.1-0.2,0.2-0.2,0.4c0,0.2,0.1,0.3,0.2,0.4c0.1,0.1,0.3,0.2,0.4,0.2   c0.2,0,0.3-0.1,0.4-0.2c0.1-0.1,0.1-0.2,0.1-0.2c0-0.1,0-0.2,0-0.2l0-0.3C89.5,118.3,89.3,118.3,89,118.3"/>
	<path class="st0" d="M87.9,112.3L87.9,112.3L87.9,112.3l0.2-0.1c0.1-0.1,0.1-0.1,0.1-0.2v-0.5c0,0,0-0.1-0.1-0.1c0,0-0.1,0-0.1,0   l-0.1,0l-0.1,0c-0.1,0.1-0.1,0.1-0.2,0.2c0,0.1,0,0.2,0,0.3v0.1l0,0.1C87.7,112.2,87.8,112.3,87.9,112.3"/>
	<path class="st0" d="M84.2,120.1c0.1,0.2,0.2,0.3,0.2,0.4c0.1,0.1,0.3,0.1,0.4,0.1l0.3,0l0.1,0l0.2-0.1l0.2-0.2   c0.1-0.1,0.1-0.2,0.1-0.2V119c0-0.2-0.1-0.4-0.3-0.5c-0.1-0.1-0.2-0.1-0.3-0.1l-0.3,0c-0.3,0-0.6,0.2-0.8,0.6   c0,0.1-0.1,0.2-0.1,0.3v0.2l0,0.2L84.2,120.1z"/>
	<path class="st0" d="M107.6,88.9c0.1,0,0.2,0.1,0.3,0.1c0.1,0,0.2,0.1,0.3,0.1c0.6,0.1,1.3-0.3,1.9-1l0.2-0.4l0.1-0.3   c0.1-0.4,0-0.8-0.3-1.1c-0.2-0.3-0.6-0.5-1-0.6c-0.4-0.1-0.8,0.1-1.3,0.4l-0.4,0.5c0,0.1-0.1,0.2-0.1,0.3c0,0.1-0.1,0.2-0.1,0.4   l0,0.5c0,0.2,0,0.4,0.1,0.6C107.3,88.6,107.4,88.8,107.6,88.9"/>
	<path class="st0" d="M78.8,89.2c1.4,0,2.1-0.7,2-2.1c0-0.4-0.2-1.2-0.4-1.5c-0.3-0.5-0.8-0.7-1.5-0.7c-0.8,0-1.4,0.4-1.6,1   c-0.1,0.2-0.2,0.7-0.3,1C77,87.4,77,88,77,88C77.1,88.8,77.7,89.2,78.8,89.2"/>
	<path class="st0" d="M69.2,86.5c0.3,0.1,0.5,0.1,0.8,0.1c0,0,0.3,0,0.4,0c0.1,0,0.3-0.2,0.3-0.2c0.3-0.2,0.6-0.4,0.8-0.8   c0.2-0.4,0.3-0.8,0.2-1.1c-0.1-0.6-0.3-1.1-0.7-1.4c-0.4-0.3-0.9-0.4-1.6-0.4c-0.4,0-0.8,0.3-1.2,0.8c-0.1,0.2-0.2,0.4-0.3,0.7   l-0.1,0.3l0,0.3C68,85.6,68.4,86.2,69.2,86.5"/>
	<path class="st0" d="M46.3,89.3C46,89,45.5,89,45,89.2c-0.3,0.1-0.7,0.3-0.9,0.8C44,90.5,44,90.9,44,91.2c0.2,0.7,0.6,1,1.3,1.2   c0.6,0.2,1.1-0.1,1.3-0.3c0.2-0.2,0.4-0.5,0.5-0.8C47.3,90.9,47.3,89.8,46.3,89.3"/>
	<path class="st0" d="M91.1,119.6l0.3,0c0.1,0,0.1-0.1,0.2-0.1c0,0,0.1,0,0.1-0.1c0.2-0.1,0.3-0.3,0.3-0.5c0-0.1,0-0.2-0.1-0.3   c0-0.1-0.1-0.1-0.1-0.1c0,0-0.1-0.1-0.1-0.1l-0.3-0.2l-0.1,0l-0.1,0c-0.2,0-0.4,0.1-0.5,0.3l-0.1,0.1l-0.1,0.2l0,0.3   c0,0.2,0.1,0.3,0.2,0.4C90.8,119.5,91,119.6,91.1,119.6"/>
	<path class="st0" d="M57.6,89.4c-0.3-0.4-0.8-0.5-1.4-0.4c-0.7,0.1-1.1,0.5-1.3,1.2c-0.1,0.5-0.1,1.1,0,1.9c0.2,0.8,0.8,1,1.8,0.8   c1.2-0.3,1.7-1,1.4-2.2C58.2,90.7,58.1,89.9,57.6,89.4"/>
</g>
</svg>